<svg width="25" height="38" viewBox="0 0 25 38" fill="none" xmlns="http://www.w3.org/2000/svg">
<path d="M24.2175 4.24824C23.8932 3.7516 23.4194 3.73733 22.8795 3.72108C22.8183 3.71924 22.7563 3.71737 22.6936 3.71477C22.6458 3.71257 22.5931 3.71342 22.538 3.71431C22.319 3.71782 22.0629 3.72194 21.9339 3.53796C21.7843 3.32467 21.7985 2.91248 21.8102 2.57219C21.8139 2.46467 21.8173 2.36426 21.8153 2.27964C21.7943 1.48916 21.7504 0.649471 21.4453 0.368764C21.2152 0.158153 20.5268 0.18733 19.892 0.214239C19.6862 0.222962 19.486 0.231446 19.3089 0.231446H5.79596C5.52389 0.231446 5.23869 0.209292 4.95847 0.187525C4.41245 0.14511 3.88533 0.104162 3.511 0.231446C2.96775 0.417075 2.93096 1.39251 2.89633 2.31103L2.89446 2.36045C2.86538 3.11872 2.67746 3.70384 2.05465 3.6449C1.33029 3.57746 0.609497 3.55619 0.281987 4.21178C-0.10481 4.98746 -0.0250374 5.79942 0.117847 7.25377C0.138258 7.46151 0.159956 7.68237 0.181766 7.91809H24.4264C24.4403 7.7458 24.455 7.57571 24.4696 7.40837C24.5831 6.09991 24.682 4.95986 24.2175 4.24824Z" fill="#8047F8"/>
<path fill-rule="evenodd" clip-rule="evenodd" d="M2.06987 9.36052C2.44852 14.4853 2.82304 19.616 3.19757 24.7467L3.1978 24.7498C3.40115 27.5357 3.60451 30.3215 3.80853 33.1064H4.58212C4.63483 33.5424 4.69515 34.0805 4.75874 34.648C4.88783 35.7998 5.03044 37.0722 5.15034 37.8542H5.2359C6.02387 37.5658 11.4712 35.2375 11.4736 25.9677C11.4726 25.9412 11.4735 25.9148 11.4762 25.8885H10.1304C10.0653 25.8879 10.0021 25.8662 9.9507 25.8266C9.89927 25.7871 9.86241 25.732 9.84577 25.6697C9.71463 25.3457 9.60888 25.0123 9.52948 24.6723C8.73777 25.1194 8.10906 25.8022 7.73296 26.6233C7.37594 25.7823 7.32921 24.8441 7.60093 23.9725C7.87266 23.101 8.44556 22.3515 9.21952 21.8551C9.22949 19.1502 10.2423 16.5427 12.0661 14.5262L12.0946 14.5012C12.1476 14.4553 12.2155 14.4298 12.2859 14.4293C12.3266 14.4296 12.3668 14.4383 12.4039 14.4548C12.4415 14.4715 12.4751 14.4958 12.5026 14.5262C14.3478 16.5454 15.3552 19.178 15.3239 21.8989C16.1123 22.3815 16.6969 23.1304 16.9691 24.0067C17.2413 24.883 17.1827 25.8271 16.8042 26.664C16.4301 25.8415 15.8008 25.1582 15.0076 24.7129C14.9592 25.0424 14.8699 25.3648 14.7419 25.6728C14.6977 25.8041 14.6091 25.8885 14.5205 25.8885H13.0853C13.0876 25.9043 13.0892 25.9201 13.0901 25.9359L13.0907 25.9396V25.9472C13.0912 25.9609 13.0912 25.9745 13.0907 25.9882C13.1104 35.5242 18.902 37.6886 19.3902 37.8542H19.5572C19.5998 37.1031 19.7386 36.0667 19.8739 35.0563C19.9671 34.36 20.0587 33.6761 20.116 33.1064H20.8985C21.149 29.5985 21.4066 26.1004 21.6642 22.6022L21.6644 22.6003L21.6645 22.5993C21.994 18.1248 22.3235 13.6501 22.6381 9.15454H2.11998C2.06092 9.16609 2.06495 9.26269 2.06987 9.36052ZM12.2859 14.4293L12.2844 14.4293H12.2875L12.2859 14.4293Z" fill="#8047F8"/>
</svg>
